<?xml version="1.0" standalone="no"?>
<!DOCTYPE svg PUBLIC "-//W3C//DTD SVG 20010904//EN"
 "http://www.w3.org/TR/2001/REC-SVG-20010904/DTD/svg10.dtd">
<svg version="1.0" xmlns="http://www.w3.org/2000/svg"
 width="1772.000000pt" height="444.000000pt" viewBox="0 0 1772.000000 444.000000"
 preserveAspectRatio="xMidYMid meet">

<g transform="translate(0.000000,444.000000) scale(0.100000,-0.100000)"
fill="#000000" stroke="none">
<path d="M630 2848 l0 -663 660 660 c363 363 660 661 660 662 0 2 -297 3 -660
3 l-660 0 0 -662z"/>
<path d="M1792 2345 l-1167 -1164 535 -1 535 0 632 632 633 633 633 -633 632
-632 533 0 532 0 0 630 0 630 -345 0 -345 0 -2 -290 -3 -290 -480 480 -480
480 828 0 827 0 0 345 0 345 -1165 0 -1166 0 -1167 -1165z"/>
<path d="M7080 3495 c-112 -32 -184 -96 -209 -187 -8 -30 -11 -128 -9 -323 3
-254 5 -284 23 -320 69 -140 241 -191 513 -151 62 9 124 21 137 26 l25 10 0
230 0 230 -105 0 -105 0 0 -149 c0 -146 0 -149 -22 -155 -42 -11 -148 -6 -184
9 -57 24 -64 54 -64 290 0 239 6 266 67 292 38 16 129 15 299 -3 l61 -7 12 93
c6 51 10 94 8 96 -11 12 -120 24 -247 29 -113 4 -157 2 -200 -10z"/>
<path d="M5980 3490 c0 -5 68 -164 150 -353 l150 -345 0 -141 0 -141 110 0
110 0 0 141 0 142 150 343 c83 188 150 347 150 353 0 7 -40 11 -113 11 l-113
0 -88 -220 c-49 -121 -92 -220 -95 -220 -4 0 -47 99 -96 220 l-89 220 -113 0
c-65 0 -113 -4 -113 -10z"/>
<path d="M6070 1680 l0 -490 310 0 310 0 0 95 0 95 -197 2 -198 3 0 105 0 105
183 3 182 2 0 95 0 95 -185 0 -185 0 0 90 0 90 200 0 200 0 0 100 0 100 -310
0 -310 0 0 -490z"/>
<path d="M6860 1680 l0 -490 105 0 105 0 1 318 1 317 156 -317 157 -318 137 0
138 0 0 490 0 490 -105 0 -105 0 -2 -331 -3 -331 -157 329 -156 328 -136 3
-136 3 0 -491z"/>
<path d="M7780 2070 l0 -100 130 0 130 0 0 -390 0 -390 110 0 110 0 0 390 0
390 135 0 135 0 0 100 0 100 -375 0 -375 0 0 -100z"/>
<path d="M8640 1680 l0 -490 310 0 310 0 0 95 0 95 -197 2 -198 3 0 105 0 105
183 3 182 2 0 95 0 95 -185 0 -185 0 0 90 0 90 200 0 200 0 0 100 0 100 -310
0 -310 0 0 -490z"/>
<path d="M9430 1680 l0 -490 110 0 110 0 0 150 0 150 63 0 63 0 108 -150 107
-150 129 0 c72 0 130 2 130 5 0 2 -49 74 -110 159 -60 85 -110 159 -110 163 1
4 18 20 40 35 68 47 84 92 88 248 5 159 -6 221 -49 273 -67 81 -141 97 -456
97 l-223 0 0 -490z m463 279 c35 -16 47 -50 47 -132 0 -125 -27 -145 -192
-146 l-98 -1 0 145 0 145 110 0 c60 0 120 -5 133 -11z"/>
<path d="M10260 2070 l0 -100 130 0 130 0 0 -390 0 -390 110 0 110 0 0 390 0
390 135 0 135 0 0 100 0 100 -375 0 -375 0 0 -100z"/>
<path d="M11121 1698 c-79 -260 -146 -481 -149 -490 -4 -16 6 -18 111 -18
l116 0 15 53 c8 28 20 71 26 95 l11 42 163 0 163 0 17 -62 c10 -35 22 -78 27
-95 l11 -33 114 0 114 0 -6 24 c-3 13 -70 232 -148 487 l-143 464 -149 3 -149
2 -144 -472z m349 64 c29 -106 50 -195 48 -198 -3 -2 -53 -3 -110 -2 l-106 3
43 155 c24 85 48 175 55 199 6 23 13 41 15 40 1 -2 26 -91 55 -197z"/>
<path d="M11980 1680 l0 -490 110 0 110 0 0 490 0 490 -110 0 -110 0 0 -490z"/>
<path d="M12400 1680 l0 -490 105 0 105 0 1 318 0 317 160 -317 159 -318 140
0 140 0 0 490 0 490 -110 0 -110 0 0 -332 0 -333 -158 330 -158 330 -137 3
-137 3 0 -491z"/>
<path d="M13420 2119 c0 -61 -27 -703 -35 -836 l-5 -93 110 0 110 0 1 148 c1
81 4 199 8 262 l6 115 31 -75 c18 -41 55 -133 84 -203 l52 -128 100 3 100 3
81 200 82 200 6 -90 c4 -49 7 -168 8 -262 l1 -173 111 0 110 0 -6 103 c-7 122
-35 793 -35 843 l0 34 -112 0 -113 0 -115 -305 c-63 -168 -117 -305 -120 -305
-3 0 -57 137 -120 305 l-115 305 -112 0 -113 0 0 -51z"/>
<path d="M14560 1680 l0 -490 305 0 305 0 0 95 0 95 -195 0 -195 0 0 110 0
110 180 0 180 0 0 95 0 95 -180 0 -180 0 0 90 0 90 195 0 195 0 0 100 0 100
-305 0 -305 0 0 -490z"/>
<path d="M15340 1680 l0 -490 105 0 105 0 2 318 3 317 160 -317 160 -318 137
0 138 0 0 490 0 490 -105 0 -105 0 0 -331 c0 -181 -3 -328 -7 -325 -5 2 -78
151 -163 330 l-155 326 -137 0 -138 0 0 -490z"/>
<path d="M16260 2070 l0 -100 135 0 135 0 0 -390 0 -390 110 0 110 0 0 390 0
390 130 0 130 0 0 100 0 100 -375 0 -375 0 0 -100z"/>
</g>
</svg>
